<?xml version="1.0" encoding="iso-8859-1"?>
<!-- Generator: Adobe Illustrator 19.0.0, SVG Export Plug-In . SVG Version: 6.00 Build 0)  -->
<svg version="1.1" id="Layer_1" xmlns="http://www.w3.org/2000/svg" xmlns:xlink="http://www.w3.org/1999/xlink" x="0px" y="0px"
	 viewBox="0 0 509.287 509.287" style="enable-background:new 0 0 509.287 509.287;" xml:space="preserve">
<circle style="fill:#F7CFA2;" cx="254.644" cy="254.644" r="254.644"/>
<rect x="223.244" y="94.88" transform="matrix(-0.7071 -0.7071 0.7071 -0.7071 355.5495 467.5745)" style="fill:#886C60;" width="102.738" height="130.542"/>
<g>
	<path style="fill:#74594E;" d="M285.16,78.665l71.205,71.205c6.781,6.781,17.971,6.781,25.091,0c6.781-6.781,6.781-17.971,0-25.091
		l-71.205-71.205c-6.781-6.781-17.971-6.781-25.091,0C278.379,60.355,278.379,71.544,285.16,78.665z"/>
	<path style="fill:#74594E;" d="M264.138,242.098l-71.205-71.205c-6.781-6.781-17.971-6.781-25.091,0
		c-6.781,6.781-6.781,17.971,0,25.091l71.205,71.205c6.781,6.781,17.971,6.781,25.091,0
		C270.919,260.069,270.919,248.879,264.138,242.098z"/>
	<path style="fill:#74594E;" d="M469.616,323.475l-142.75-142.75l-31.873,31.873l142.75,142.75c8.816,8.816,23.057,8.816,31.873,0
		C478.432,346.532,478.432,332.291,469.616,323.475z"/>
</g>
<path style="fill:#646B79;" d="M282.448,344.159H148.514c-41.028,0-74.596,33.229-74.596,74.596l0,0h283.126l0,0
	C357.044,377.388,323.815,344.159,282.448,344.159z"/>
<g>
</g>
<g>
</g>
<g>
</g>
<g>
</g>
<g>
</g>
<g>
</g>
<g>
</g>
<g>
</g>
<g>
</g>
<g>
</g>
<g>
</g>
<g>
</g>
<g>
</g>
<g>
</g>
<g>
</g>
</svg>
